<?xml version="1.0" encoding="UTF-8"?>
<svg version="1.1" xmlns="http://www.w3.org/2000/svg" width="142" height="123">
<path d="M0 0 C46.86 0 93.72 0 142 0 C142 40.59 142 81.18 142 123 C95.14 123 48.28 123 0 123 C0 82.41 0 41.82 0 0 Z " fill="#F4B64B" transform="translate(0,0)"/>
<path d="M0 0 C46.86 0 93.72 0 142 0 C142 40.59 142 81.18 142 123 C95.14 123 48.28 123 0 123 C0 82.41 0 41.82 0 0 Z M5 35 C5 58.76 5 82.52 5 107 C11.33712195 110.16856098 16.02592949 112.08926189 22.6875 113.625 C23.60249268 113.83664795 24.51748535 114.0482959 25.46020508 114.26635742 C59.40247671 121.74161762 105.32421121 122.83789439 137 107 C137 83.24 137 59.48 137 35 C135.02 35.66 133.04 36.32 131 37 C114.94369813 41.61325845 99.46770165 44.08828972 82.75390625 44.2734375 C81.71217255 44.28587494 80.67043884 44.29831238 79.59713745 44.31112671 C53.65555833 44.56134685 29.42033216 44.76813286 5 35 Z " fill="#174C7E" transform="translate(0,0)"/>
<path d="M0 0 C2.97 0.99 5.94 1.98 9 3 C44.17411274 14.04722832 94.02295919 15.98289985 128.21484375 0.734375 C130 0 130 0 132 0 C132 9.24 132 18.48 132 28 C122.9919318 32.5040341 122.9919318 32.5040341 118.35546875 33.44921875 C117.34806641 33.65740234 116.34066406 33.86558594 115.30273438 34.08007812 C114.27470703 34.28052734 113.24667969 34.48097656 112.1875 34.6875 C111.17107422 34.89955078 110.15464844 35.11160156 109.10742188 35.33007812 C98.68924359 37.43496182 88.36892592 38.15579406 77.75390625 38.2734375 C76.19130569 38.29216164 76.19130569 38.29216164 74.59713745 38.31126404 C21.64743101 38.8237155 21.64743101 38.8237155 0 28 C0 18.76 0 9.52 0 0 Z " fill="#2167A2" transform="translate(5,7)"/>
<path d="M0 0 C5.61 0 11.22 0 17 0 C17.63808594 1.86527344 18.27617188 3.73054688 18.93359375 5.65234375 C19.76807629 8.0807817 20.60272001 10.50916428 21.4375 12.9375 C21.85837891 14.16919922 22.27925781 15.40089844 22.71289062 16.66992188 C23.11572266 17.83974609 23.51855469 19.00957031 23.93359375 20.21484375 C24.30540771 21.29886475 24.67722168 22.38288574 25.06030273 23.49975586 C25.76814287 25.90585315 25.76814287 25.90585315 27 27 C29.64 18.42 32.28 9.84 35 1 C41.6 1 48.2 1 55 1 C55 19.15 55 37.3 55 56 C50.71 56 46.42 56 42 56 C41.67 44.78 41.34 33.56 41 22 C37.7 32.89 34.4 43.78 31 55 C28.36 55 25.72 55 23 55 C20.34853442 48.27751497 18.30201893 41.44364386 16.3125 34.5 C15.219375 30.705 14.12625 26.91 13 23 C12.67 33.23 12.34 43.46 12 54 C8.04 53.34 4.08 52.68 0 52 C0 34.84 0 17.68 0 0 Z " fill="#1D4D79" transform="translate(17,52)"/>
<path d="M0 0 C4.83927792 3.97285698 7.97420826 9.28123043 8.7890625 15.46875 C8.93280892 18.06724293 9.02654049 20.62027934 9.0390625 23.21875 C9.04301025 23.92741211 9.04695801 24.63607422 9.05102539 25.36621094 C8.99685085 30.24750424 8.34554555 34.232121 6.34765625 38.671875 C5.62961137 40.9816697 5.94109134 42.22602846 6.7890625 44.46875 C7.4490625 45.12875 8.1090625 45.78875 8.7890625 46.46875 C8.7890625 48.34375 8.7890625 48.34375 7.7890625 50.46875 C4.7265625 52.71875 4.7265625 52.71875 1.7890625 54.46875 C-0.6859375 52.48875 -0.6859375 52.48875 -3.2109375 50.46875 C-4.3246875 51.12875 -5.4384375 51.78875 -6.5859375 52.46875 C-11.48188537 54.8821236 -15.833323 55.45891394 -21.2109375 54.46875 C-27.81946552 51.69816437 -31.90880975 47.42432216 -34.7890625 40.88671875 C-36.47493229 36.2625436 -36.71001683 31.98167112 -36.6484375 27.09375 C-36.64158936 26.25956543 -36.63474121 25.42538086 -36.62768555 24.56591797 C-36.42081953 16.62133331 -34.9303035 10.66400505 -29.7109375 4.53125 C-28.8859375 3.850625 -28.0609375 3.17 -27.2109375 2.46875 C-26.5715625 1.911875 -25.9321875 1.355 -25.2734375 0.78125 C-17.87784306 -3.92503737 -7.65590683 -4.41081052 0 0 Z " fill="#1B4C79" transform="translate(117.2109375,53.53125)"/>
<path d="M0 0 C3.279375 1.1446875 3.279375 1.1446875 6.625 2.3125 C40.44300817 13.6709397 92.81226122 17.03086125 126.01953125 1.8671875 C128 1 128 1 132 0 C132 5.28 132 10.56 132 16 C88.44 16 44.88 16 0 16 C0 10.72 0 5.44 0 0 Z " fill="#2367A0" transform="translate(5,107)"/>
<path d="M0 0 C40.26 0 80.52 0 122 0 C110.79625278 11.20374722 82.1761874 9.35136447 67.07028198 9.3815918 C44.37017577 9.31710201 21.56045763 8.80637259 0 1 C0 0.67 0 0.34 0 0 Z " fill="#2067A3" transform="translate(10,0)"/>
<path d="M0 0 C3.15954305 2.54137159 4.71540886 4.14622659 6 8 C6.07051114 10.73865287 6.09357765 13.45027588 6.0625 16.1875 C6.05798828 16.93708984 6.05347656 17.68667969 6.04882812 18.45898438 C6.03706354 20.30602383 6.01912865 22.15302213 6 24 C3 24 3 24 0 22 C-1.65 23.98 -3.3 25.96 -5 28 C-3.35 29.98 -1.7 31.96 0 34 C-3.1875 34.8125 -3.1875 34.8125 -7 35 C-11.23137107 31.89699455 -12.64489124 28.96077261 -14 24 C-14.82453702 15.73545453 -14.70089537 8.9841874 -10 2 C-6.24952518 -0.50031654 -4.44143734 -0.53603554 0 0 Z " fill="#F0B54B" transform="translate(108,62)"/>
<path d="M0 0 C1.67542976 0.28604898 3.34385343 0.61781233 5 1 C5.33 2.65 5.66 4.3 6 6 C3.6875 7.125 3.6875 7.125 1 8 C0.01 7.34 -0.98 6.68 -2 6 C-1.125 1.125 -1.125 1.125 0 0 Z " fill="#164B78" transform="translate(84,28)"/>
<path d="M0 0 C1.67542976 0.28604898 3.34385343 0.61781233 5 1 C5.33 2.65 5.66 4.3 6 6 C4.35 6.66 2.7 7.32 1 8 C-0.5625 6.75 -0.5625 6.75 -2 5 C-1.74853421 2.86254078 -1.54074221 1.54074221 0 0 Z " fill="#164B78" transform="translate(53,28)"/>
<path d="M0 0 C2.625 0.375 2.625 0.375 5 1 C5.125 3.375 5.125 3.375 5 6 C4.34 6.66 3.68 7.32 3 8 C0.875 7.625 0.875 7.625 -1 7 C-1.625 4.625 -1.625 4.625 -2 2 C-1.34 1.34 -0.68 0.68 0 0 Z " fill="#154A77" transform="translate(69,28)"/>
<path d="M0 0 C0.66 0.33 1.32 0.66 2 1 C-0.64 3.64 -3.28 6.28 -6 9 C-6 6 -6 6 -3.5625 3.375 C-2.716875 2.59125 -1.87125 1.8075 -1 1 C-0.67 0.67 -0.34 0.34 0 0 Z " fill="#305475" transform="translate(92,54)"/>
</svg>
