<svg width="24" height="24" viewBox="0 0 24 24" fill="none" xmlns="http://www.w3.org/2000/svg">
<path d="M4 7 L4 17 L6 17 L6 13 L7.5 16 L8.5 16 L10 13 L10 17 L12 17 L12 7 L9.5 7 L8 11 L6.5 7 L4 7 Z" fill="#424242"/>
<path d="M14 7 C16.761 7 19 9.239 19 12 C19 14.761 16.761 17 14 17 C11.239 17 9 14.761 9 12 C9 9.239 11.239 7 14 7 Z M14 9 C12.343 9 11 10.343 11 12 C11 13.657 12.343 15 14 15 C15.657 15 17 13.657 17 12 C17 10.343 15.657 9 14 9 Z" fill="#424242"/>
<path d="M15.5 13.5 L17.5 15.5" stroke="#424242" stroke-width="1.5" stroke-linecap="round"/>
</svg>
