<?xml version="1.0" encoding="UTF-8"?>
<svg version="1.1" xmlns="http://www.w3.org/2000/svg" width="142" height="123">
<path d="M0 0 C46.86 0 93.72 0 142 0 C142 40.59 142 81.18 142 123 C95.14 123 48.28 123 0 123 C0 82.41 0 41.82 0 0 Z M5 35 C5 58.76 5 82.52 5 107 C39.58590956 124.29295478 93.11203117 122.66333461 129.43359375 110.88671875 C133.51899679 109.44761981 133.51899679 109.44761981 137 107 C137.09436529 104.76070114 137.11742327 102.5183825 137.11352539 100.27709961 C137.11374443 99.22349495 137.11374443 99.22349495 137.1139679 98.14860535 C137.11326872 95.81648722 137.10547617 93.484448 137.09765625 91.15234375 C137.09579208 89.53951562 137.09436818 87.92668693 137.09336853 86.31385803 C137.08954323 82.06084643 137.07971285 77.80786876 137.06866455 73.55487061 C137.05845069 69.2182257 137.05387096 64.88157533 137.04882812 60.54492188 C137.03809059 52.02993231 137.02101403 43.51497037 137 35 C135.90513779 35.34806702 134.81027557 35.69613403 133.68223572 36.05474854 C132.22952146 36.51351198 130.77676555 36.97214353 129.32397461 37.43066406 C128.24443638 37.77443588 128.24443638 37.77443588 127.14308929 38.12515259 C121.99162113 39.74700475 116.91554429 40.99320769 111.5625 41.75 C110.85158203 41.86214844 110.14066406 41.97429688 109.40820312 42.08984375 C83.91370762 46.01918576 57.86485395 45.94659875 32.375 42.1875 C30.79332031 41.95800659 30.79332031 41.95800659 29.1796875 41.72387695 C21.81954614 40.55004128 15.00316103 38.52650913 8 36 C7.01 35.67 6.02 35.34 5 35 Z " fill="#000000" transform="translate(0,0)"/>
<path d="M0 0 C6.80031855 6.55906556 8.06640338 13.77926882 8.3125 22.875 C8.25404758 28.32276579 7.50835344 32.8360217 5.55859375 37.9140625 C4.89966694 40.37467031 5.08862348 41.63938541 6 44 C6.66 44.66 7.32 45.32 8 46 C8 47.875 8 47.875 7 50 C3.9375 52.25 3.9375 52.25 1 54 C-1.475 52.02 -1.475 52.02 -4 50 C-4.61875 50.474375 -5.2375 50.94875 -5.875 51.4375 C-10.75296481 53.87648241 -15.86522097 54.65852129 -21.25 53.52734375 C-27.17114673 51.47512812 -31.32053937 48.6392117 -34.25 43 C-38.60323194 33.86534937 -38.55055837 21.44033746 -35.4375 11.875 C-32.9242966 6.09287471 -29.53240304 1.80171929 -23.86328125 -1.08984375 C-16.14031175 -4.01459834 -7.20706117 -4.53665535 0 0 Z M-20 10 C-24.36089146 17.42966693 -25.18347414 25.17835148 -23.46875 33.61328125 C-22.46879523 36.93378323 -21.46296879 39.43782361 -19.25 42.125 C-15.96446845 43.40270671 -13.38439226 42.71592913 -10 42 C-11.65 39.69 -13.3 37.38 -15 35 C-12.03 32.525 -12.03 32.525 -9 30 C-7.68 30.99 -6.36 31.98 -5 33 C-2.49230424 27.98460848 -3.30872562 19.94149166 -4.56640625 14.58984375 C-5.90059485 11.29977657 -7.00572305 9.99618464 -10 8 C-13.86224368 7.67129841 -16.851017 7.61111635 -20 10 Z " fill="#000000" transform="translate(118,54)"/>
<path d="M0 0 C5.61 0 11.22 0 17 0 C21.455 13.365 21.455 13.365 26 27 C27.87790282 24.18314577 28.70981475 22.12422281 29.69140625 18.9296875 C29.99626953 17.95128906 30.30113281 16.97289063 30.61523438 15.96484375 C30.92783203 14.94519531 31.24042969 13.92554687 31.5625 12.875 C32.18604218 10.85071031 32.81220221 8.82722449 33.44140625 6.8046875 C33.71670166 5.90733887 33.99199707 5.00999023 34.27563477 4.08544922 C35 2 35 2 36 1 C37.33043625 0.9016279 38.66593344 0.86921408 40 0.8671875 C40.804375 0.86589844 41.60875 0.86460938 42.4375 0.86328125 C43.283125 0.86714844 44.12875 0.87101562 45 0.875 C46.2684375 0.86919922 46.2684375 0.86919922 47.5625 0.86328125 C48.366875 0.86457031 49.17125 0.86585937 50 0.8671875 C50.7425 0.86831543 51.485 0.86944336 52.25 0.87060547 C54 1 54 1 55 2 C55.09353163 3.68801985 55.11744791 5.37995207 55.11352539 7.07055664 C55.11344986 8.15160172 55.11337433 9.23264679 55.11329651 10.34645081 C55.10813522 11.5224736 55.10297394 12.6984964 55.09765625 13.91015625 C55.0962413 15.10732773 55.09482635 16.30449921 55.09336853 17.53794861 C55.08774979 21.37949066 55.07519411 25.22097543 55.0625 29.0625 C55.05748741 31.65950437 55.05292409 34.25650965 55.04882812 36.85351562 C55.03777427 43.23569932 55.02049708 49.61783993 55 56 C50.71 56 46.42 56 42 56 C41.67 44.78 41.34 33.56 41 22 C38.08101009 32.11144946 38.08101009 32.11144946 35.16625977 42.22412109 C34.62183228 44.10478271 34.62183228 44.10478271 34.06640625 46.0234375 C33.78259094 47.01210815 33.78259094 47.01210815 33.49304199 48.02075195 C32.1140718 52.7718564 32.1140718 52.7718564 31 55 C28.36 55 25.72 55 23 55 C20.4320778 48.42611917 18.33852528 41.75824492 16.3125 35 C15.219375 31.37 14.12625 27.74 13 24 C12.67 33.9 12.34 43.8 12 54 C8.04 53.34 4.08 52.68 0 52 C0 34.84 0 17.68 0 0 Z " fill="#000000" transform="translate(17,52)"/>
</svg>
